<svg width="14" height="12" viewBox="0 0 14 12" fill="none" xmlns="http://www.w3.org/2000/svg">
<path d="M3.62032 8.66892C2.54262 7.90372 1.6898 6.90838 1.2079 6.27986C1.07315 6.10636 1 5.89294 1 5.67325C1 5.45357 1.07315 5.24014 1.2079 5.06664C2.08 3.92819 4.17232 1.58411 6.61511 1.58411C7.71092 1.58411 8.73547 2.0555 9.61165 2.67876" stroke="#516391" stroke-width="2" stroke-linecap="round" stroke-linejoin="round"/>
<path d="M7.85931 4.43872C7.6971 4.2738 7.50384 4.14264 7.29068 4.05278C7.07752 3.96293 6.84868 3.91617 6.61735 3.9152C6.38603 3.91423 6.15681 3.95907 5.9429 4.04714C5.729 4.1352 5.53464 4.26474 5.37105 4.4283C5.20746 4.59185 5.07787 4.78617 4.98976 5.00006C4.90164 5.21394 4.85675 5.44316 4.85766 5.67448C4.85858 5.9058 4.90528 6.13465 4.99509 6.34783C5.08489 6.56102 5.21601 6.75431 5.38089 6.91656M1.94217 10.3459L11.2881 1M5.4469 9.58892C5.82611 9.70179 6.21948 9.76001 6.61514 9.76181C9.05793 9.76181 11.1503 7.41774 12.0223 6.27929C12.1571 6.10563 12.2301 5.89207 12.23 5.67228C12.2299 5.4525 12.1566 5.23901 12.0218 5.06548C11.7153 4.66565 11.3865 4.28341 11.0369 3.9206" stroke="#516391" stroke-width="2" stroke-linecap="round" stroke-linejoin="round"/>
</svg>
