<svg width="15" height="12" viewBox="0 0 15 12" fill="none" xmlns="http://www.w3.org/2000/svg">
<path d="M13.7596 5.25857C14.0801 5.70143 14.0801 6.29929 13.7596 6.74143C12.7501 8.13357 10.3279 11 7.5001 11C4.67227 11 2.25015 8.13357 1.24059 6.74143C1.08465 6.52938 1 6.26851 1 6C1 5.73149 1.08465 5.47062 1.24059 5.25857C2.25015 3.86643 4.67227 1 7.5001 1C10.3279 1 12.7501 3.86643 13.7596 5.25857V5.25857Z" stroke="#516391" stroke-linecap="round" stroke-linejoin="round"/>
<path d="M7.5001 8.14286C8.62046 8.14286 9.52868 7.18347 9.52868 6C9.52868 4.81653 8.62046 3.85714 7.5001 3.85714C6.37975 3.85714 5.47153 4.81653 5.47153 6C5.47153 7.18347 6.37975 8.14286 7.5001 8.14286Z" stroke="#516391" stroke-linecap="round" stroke-linejoin="round"/>
</svg>
